<?xml version="1.0" encoding="iso-8859-1"?>
<!-- Generator: Adobe Illustrator 19.0.0, SVG Export Plug-In . SVG Version: 6.00 Build 0)  -->
<svg version="1.1" id="Capa_1" xmlns="http://www.w3.org/2000/svg" xmlns:xlink="http://www.w3.org/1999/xlink" x="0px" y="0px"
	 viewBox="0 0 512 512" style="enable-background:new 0 0 512 512;" xml:space="preserve">
<path style="fill:#707487;" d="M254.945,8c-47.195,0-85.451,38.257-85.451,85.452v34.551c5.711-5.294,13.836-8.17,21.767-7.111
	v-4.258c0-3.385,2.89-6.058,6.241-5.805c33.038,2.373,66.661-8.125,92.084-24.733c2.373-1.551,5.516-1.165,7.444,0.908
	c21.734,23.362,21.603,22.458,21.603,25.509v8.362c8.694-1.303,16.405,1.383,21.763,6.364V93.453
	C340.397,46.258,302.141,8,254.945,8z"/>
<path style="fill:#5B5D6E;" d="M189.495,93.453c0-43.81,32.972-79.896,75.451-84.85C261.663,8.219,258.33,8,254.945,8
	c-47.195,0-85.451,38.257-85.451,85.452v34.552c5.287-4.901,12.645-7.724,20.001-7.276V93.453z"/>
<path style="fill:#F0A479;" d="M318.519,117.78v46.993c0,0.509-0.027,1.012-0.039,1.52c16.629,2.518,29.654-9.498,29.654-24.254
	C348.135,127.252,335.099,115.295,318.519,117.78z"/>
<path style="fill:#E59770;" d="M338.674,122.732c-5.253-4.065-12.306-6.129-20.155-4.952v46.993c0,0.509-0.027,1.012-0.039,1.52
	c7.873,1.192,14.936-0.877,20.193-4.949v-38.611H338.674z"/>
<path style="fill:#F0A479;" d="M191.451,164.83v-47.094c-14.515-1.938-29.691,9.201-29.691,24.301
	c0,14.775,13.029,26.843,29.728,24.315C191.476,165.845,191.451,165.339,191.451,164.83z"/>
<path style="fill:#E59770;" d="M191.451,161.556c-5.986-4.537-9.69-11.642-9.69-19.518c0-7.676,3.926-14.324,9.69-18.756v-5.545
	c-14.515-1.938-29.691,9.202-29.691,24.301c0,14.775,13.029,26.843,29.728,24.315c-0.012-0.508-0.037-1.015-0.037-1.523V161.556z"/>
<path style="fill:#F0A479;" d="M255.856,224.461c-13.805,0-25.938-3.79-35.86-10.131v35.008l35.706,44.074l35.706-44.074v-35.954
	C281.294,220.362,269.047,224.461,255.856,224.461z"/>
<path style="fill:#E59770;" d="M240.386,222.77c-7.528-1.692-14.369-4.592-20.39-8.439v35.008l20.39,25.169L240.386,222.77
	L240.386,222.77z"/>
<path style="fill:#E4EAF8;" d="M385.868,282.921l-94.46-36.582l-35.706,44.074l-35.706-44.074l-94.361,36.582
	c0,0-34.937,14.363-34.937,54.19c0,36.038,0,127.133,0,156.245c0,6.429,5.212,11.642,11.642,11.642c4.899,0,301.849,0,306.824,0
	c6.429,0,11.642-5.212,11.642-11.642c0-29.114,0-120.208,0-156.245C420.805,297.284,385.868,282.921,385.868,282.921z"/>
<path style="fill:#D8DCE5;" d="M110.629,493.358c0-29.114,0-131.209,0-167.246c0-23.102,11.751-37.623,21.624-45.756l-6.618,2.566
	c0,0-34.937,14.363-34.937,54.19c0,36.038,0,127.133,0,156.245c0,6.429,5.213,11.642,11.642,11.642c0.734,0,8.037,0,19.931,0
	C115.843,505,110.629,499.786,110.629,493.358z"/>
<path style="fill:#F0A479;" d="M297.03,84.005c-1.929-2.073-5.071-2.458-7.444-0.908c-25.423,16.607-59.045,27.106-92.084,24.732
	c-3.351-0.254-6.241,2.42-6.241,5.804v51.05c0,32.81,25.709,62.777,64.595,62.777c34.616,0,62.778-28.162,62.778-62.777v-55.171
	C318.634,106.462,318.765,107.367,297.03,84.005z"/>
<path style="fill:#E59770;" d="M211.262,164.684v-56.6c-4.582,0.148-9.177,0.075-13.76-0.254c-3.351-0.254-6.241,2.42-6.241,5.805
	v51.05c0,32.81,25.709,62.777,64.595,62.777c3.088,0,6.122-0.234,9.092-0.667C234.627,222.375,211.262,196.211,211.262,164.684z"/>
<g>
	<path style="fill:#D8DCE5;" d="M298.816,313.06l26.701-53.512l-34.107-13.209l-35.706,44.074l34.812,24.723
		C293.332,317.139,297.272,316.153,298.816,313.06z"/>
	<path style="fill:#D8DCE5;" d="M212.639,313.06l-26.701-53.512l34.107-13.209l35.706,44.074l-34.812,24.723
		C218.122,317.139,214.182,316.153,212.639,313.06z"/>
</g>
<path style="fill:#FF5050;" d="M292.017,461.76l-22.916-135.649h-13.352h-0.043h-13.352L219.438,461.76
	c-0.241,1.748,0.272,3.522,1.364,4.726l0,0l0,0l31.639,34.87c1.762,1.942,4.811,1.942,6.574,0l31.639-34.87l0,0l0,0
	C291.745,465.282,292.257,463.508,292.017,461.76z"/>
<g>
	<polygon style="fill:#ED3A3A;" points="255.748,290.444 255.748,290.414 255.727,290.429 255.705,290.414 255.705,290.444 
		230.385,308.427 242.354,326.44 255.705,326.44 255.748,326.44 269.1,326.44 281.069,308.427 	"/>
	<path style="fill:#ED3A3A;" d="M240.802,466.486c-1.093-1.205-1.605-2.979-1.364-4.726l22.916-135.649h-6.606h-0.043h-13.352
		L219.437,461.76c-0.241,1.748,0.271,3.522,1.364,4.726l31.638,34.87c1.762,1.942,4.812,1.942,6.574,0l6.713-7.399L240.802,466.486z
		"/>
</g>
<path style="fill:#DB2A2A;" d="M265.728,297.531l-9.98-7.087v-0.031l-0.022,0.015l-0.021-0.015v0.031l-25.321,17.982l11.969,18.013
	h13.352h0.043h6.606l-10.368-15.604c-0.892-1.342-0.557-3.15,0.757-4.084L265.728,297.531z"/>
<path d="M421.052,394.842c4.142,0,7.5-3.358,7.5-7.5v-50.73c0-44.344-37.969-60.463-39.585-61.128
	c-0.047-0.02-0.095-0.039-0.143-0.057l-89.668-34.726v-21.03c14.242-11.076,24.117-27.495,26.596-46.227
	c7.101-0.5,13.69-3.152,19.071-7.779c7.027-6.043,11.059-14.838,11.059-24.126c0-7.708-2.781-15.068-7.737-20.803V92.953
	C348.144,41.699,306.446,0,255.192,0S162.24,41.699,162.24,92.953v28.511c-5.009,5.677-7.733,12.665-7.733,20.074
	c0,9.291,4.03,18.085,11.059,24.129c5.377,4.625,11.962,7.274,19.061,7.775c2.499,19.083,12.662,36.114,28.117,47.339v19.92
	l-89.571,34.725c-0.047,0.018-0.094,0.037-0.141,0.056c-1.617,0.665-39.585,16.784-39.585,61.128v156.245
	c0,10.555,8.587,19.142,19.142,19.142h71.457c4.142,0,7.5-3.358,7.5-7.5s-3.358-7.5-7.5-7.5h-16.137V349.301
	c0-4.142-3.358-7.5-7.5-7.5c-4.142,0-7.5,3.358-7.5,7.5v147.698h-40.319c-2.283,0-4.141-1.858-4.141-4.141V336.611
	c0-33.769,28.493-46.486,30.243-47.234l53.834-20.87l23.652,47.402l0,0c2.263,4.533,6.858,7.27,11.756,7.27
	c4.801,0,7.349-2.249,10.738-4.656l6.041,9.094l-22.421,132.468c-0.013,0.075-0.024,0.15-0.035,0.226
	c-0.542,3.924,0.671,7.957,3.244,10.789l23.543,25.9h-29.995c-4.142,0-7.5,3.358-7.5,7.5s3.358,7.5,7.5,7.5h200.365
	c10.555,0,19.142-8.587,19.142-19.142v-70.514c0-4.142-3.358-7.5-7.5-7.5c-4.142,0-7.5,3.358-7.5,7.5v70.514
	c0,2.283-1.858,4.141-4.141,4.141h-40.317V349.301c0-4.142-3.358-7.5-7.5-7.5c-4.142,0-7.5,3.358-7.5,7.5v147.698h-81.185
	l23.543-25.9c2.572-2.83,3.785-6.861,3.244-10.787c-0.01-0.076-0.022-0.152-0.035-0.228L277.24,327.617l6.041-9.094
	c3.34,2.372,5.913,4.656,10.738,4.656c4.908,0,9.497-2.747,11.755-7.269v-0.001l23.65-47.4l53.876,20.865
	c1.949,0.836,30.252,13.582,30.252,47.238v50.73C413.552,391.484,416.91,394.842,421.052,394.842z M335.042,154.291
	c-2.453,2.11-5.416,3.459-8.661,3.987v-33.477c8.62,1.4,14.5,8.551,14.5,16.737C340.88,146.452,338.752,151.1,335.042,154.291z
	 M177.241,92.953c0-42.983,34.968-77.952,77.951-77.952s77.951,34.969,77.951,77.952v18.043c-2.18-0.663-4.441-1.101-6.762-1.307
	c0-7.237,0.063-5.841-23.612-31.294c-4.354-4.678-11.556-5.658-17.037-2.077c-26.13,17.069-58.005,25.644-87.415,23.532
	c-6.448-0.483-12.325,3.766-13.906,10.046c-2.389,0.274-5.127,0.921-7.168,1.615V92.953z M169.507,141.538
	c0-8.017,6.647-14.544,14.5-16.359v33.1C175.289,156.864,169.507,149.656,169.507,141.538z M199.008,164.184v-46.792v-2.465
	c32.375,1.896,66.318-7.722,93.739-25.283c10.858,11.658,16.738,17.773,18.634,20.099c0,5.884,0,47.705,0,54.44
	c0,30.447-24.826,55.276-55.277,55.276C221.91,219.46,199.008,192.934,199.008,164.184z M256.103,234.461
	c9.833,0,19.476-2.096,28.052-5.846v14.567l-28.181,34.785l-28.231-34.846v-14.036C236.855,232.758,246.593,234.461,256.103,234.461
	z M196.573,263.069l21.293-8.247l27.241,33.625c-13.852,9.838-25.228,17.919-26.485,18.812L196.573,263.069z M255.974,493.325
	l-28.746-31.623l21.709-128.263h14.071l21.709,128.263L255.974,493.325z M265.325,318.439h-18.703l-5.718-8.607l15.07-10.703
	l15.07,10.703L265.325,318.439z M293.325,307.259c-0.548-0.389-12.233-8.691-26.517-18.834c6.198-7.651-1.053,1.299,27.235-33.617
	l21.331,8.262L293.325,307.259z"/>
<g>
</g>
<g>
</g>
<g>
</g>
<g>
</g>
<g>
</g>
<g>
</g>
<g>
</g>
<g>
</g>
<g>
</g>
<g>
</g>
<g>
</g>
<g>
</g>
<g>
</g>
<g>
</g>
<g>
</g>
</svg>
